<?xml version="1.0" encoding="utf-8"?>
<!-- Generator: Adobe Illustrator 24.0.2, SVG Export Plug-In . SVG Version: 6.00 Build 0)  -->
<svg version="1.1" id="Layer_1" xmlns="http://www.w3.org/2000/svg" xmlns:xlink="http://www.w3.org/1999/xlink" x="0px" y="0px"
	 viewBox="200 0 100 200" style="" xml:space="preserve" width="200" height="80">
<style type="text/css">
	.st0{fill:url(#SVGID_1_);}
	.st1{fill:url(#SVGID_2_);}
	.st2{fill:url(#SVGID_3_);}
	.st3{fill:url(#SVGID_4_);}
	.st4{fill:url(#SVGID_5_);}
	.st5{fill:url(#SVGID_6_);}
	.st6{fill:url(#SVGID_7_);}
	.st7{fill:url(#SVGID_8_);}
	.st8{fill:url(#SVGID_9_);}
	.st9{fill:url(#SVGID_10_);}
	.st10{fill:url(#SVGID_11_);}
	.st11{fill:url(#SVGID_12_);}
	.st12{fill:url(#SVGID_13_);}
	.st13{fill:url(#SVGID_14_);}
	.st14{fill:url(#SVGID_15_);}
	.st15{fill:url(#SVGID_16_);}
	.st16{fill:url(#SVGID_17_);}
	.st17{fill:url(#SVGID_18_);}
	.st18{fill:url(#SVGID_19_);}
</style>
<g>
	<g>
		<linearGradient id="SVGID_1_" gradientUnits="userSpaceOnUse" x1="186.6471" y1="135.45" x2="11.112" y2="135.45">
			<stop  offset="0" style="stop-color:#2563eb"/>
			<stop  offset="0.375" style="stop-color:#2563eb"/>
			<stop  offset="0.7622" style="stop-color:#DD2557"/>
			<stop  offset="1" style="stop-color:#DA1C5C"/>
		</linearGradient>
		<path class="st0" d="M13,132.9h-2.5v-2.5H13v-3l3.5-0.5v3.5H20v2.5h-4.1v6.6c0,1,0,1.5,1,1.5c0.5,0,1,0,2,0l0.5,2.5
			c-1,0.5-2.5,0.5-3,0.5c-4.1,0-4.1-2.5-4.1-4.6L13,132.9L13,132.9z"/>
		<linearGradient id="SVGID_2_" gradientUnits="userSpaceOnUse" x1="186.6471" y1="134.75" x2="11.112" y2="134.75">
			<stop  offset="0" style="stop-color:#2563eb"/>
			<stop  offset="0.375" style="stop-color:#2563eb"/>
			<stop  offset="0.7622" style="stop-color:#DD2557"/>
			<stop  offset="1" style="stop-color:#DA1C5C"/>
		</linearGradient>
		<path class="st1" d="M24.7,130.9c1.5-0.5,3-0.5,4.6-0.5c2.5,0,4.1,1,4.1,4.1v9.1h-4.1v-8.1c0-1.5-1-2-2-2s-2,0-2.5,0.5v9.6h-3.5
			v-17.7h3.5v5H24.7z"/>
		<linearGradient id="SVGID_3_" gradientUnits="userSpaceOnUse" x1="186.6471" y1="136.9" x2="11.112" y2="136.9">
			<stop  offset="0" style="stop-color:#2563eb"/>
			<stop  offset="0.375" style="stop-color:#2563eb"/>
			<stop  offset="0.7622" style="stop-color:#DD2557"/>
			<stop  offset="1" style="stop-color:#DA1C5C"/>
		</linearGradient>
		<path class="st2" d="M38.4,137.5L38.4,137.5c0,2.5,1.5,3.5,3.5,3.5c1,0,2.5,0,3.5-0.5l0.5,2.5c-1.5,0.5-3,0.5-4.6,0.5
			c-3.5,0-6.6-2-6.6-7.1c0-3.5,1.5-6.1,6.1-6.1c4.1,0,5.1,2,5.1,5.1c0,0.5,0,1.5-0.5,2h-7V137.5z M40.9,132.9c-2,0-2.5,2-2.5,2.5
			h5.1C43.4,133.9,42.4,132.9,40.9,132.9z"/>
	</g>
	<g>
		<linearGradient id="SVGID_4_" gradientUnits="userSpaceOnUse" x1="186.6471" y1="92.15" x2="11.112" y2="92.15">
			<stop  offset="0" style="stop-color:#2563eb"/>
			<stop  offset="0.375" style="stop-color:#2563eb"/>
			<stop  offset="0.7622" style="stop-color:#DD2557"/>
			<stop  offset="1" style="stop-color:#DA1C5C"/>
		</linearGradient>
		<polygon class="st3" points="143.2,91.9 186.7,96.5 186.7,87.8 143.2,90.4 		"/>
		<linearGradient id="SVGID_5_" gradientUnits="userSpaceOnUse" x1="186.6471" y1="69.65" x2="11.112" y2="69.65">
			<stop  offset="0" style="stop-color:#2563eb"/>
			<stop  offset="0.375" style="stop-color:#2563eb"/>
			<stop  offset="0.7622" style="stop-color:#DD2557"/>
			<stop  offset="1" style="stop-color:#DA1C5C"/>
		</linearGradient>
		<polygon class="st4" points="142.1,71.6 185.7,74.7 185.7,64.6 142.1,67.6 		"/>
		<linearGradient id="SVGID_6_" gradientUnits="userSpaceOnUse" x1="186.6471" y1="81" x2="11.112" y2="81">
			<stop  offset="0" style="stop-color:#2563eb"/>
			<stop  offset="0.375" style="stop-color:#2563eb"/>
			<stop  offset="0.7622" style="stop-color:#DD2557"/>
			<stop  offset="1" style="stop-color:#DA1C5C"/>
		</linearGradient>
		<polygon class="st5" points="180.6,82.3 136.6,86.3 136.6,75.7 180.6,79.2 		"/>
		<linearGradient id="SVGID_7_" gradientUnits="userSpaceOnUse" x1="186.6471" y1="51.1" x2="11.112" y2="51.1">
			<stop  offset="0" style="stop-color:#2563eb"/>
			<stop  offset="0.375" style="stop-color:#2563eb"/>
			<stop  offset="0.7622" style="stop-color:#DD2557"/>
			<stop  offset="1" style="stop-color:#DA1C5C"/>
		</linearGradient>
		<path class="st6" d="M189.2,55.4c-8.1-5.6-20.8-14.7-21.8-15.2s-1.5-1-2.5-1s-2,0-3,1c-1,0.5-19.7,14.7-27.8,20.3
			c-1.5,1-0.5,2.5,0,2.5s54.7-5.1,54.7-5.1C189.7,58.5,190.7,56.5,189.2,55.4z"/>
		<g>
			<linearGradient id="SVGID_8_" gradientUnits="userSpaceOnUse" x1="186.6471" y1="103.05" x2="11.112" y2="103.05">
				<stop  offset="0" style="stop-color:#2563eb"/>
				<stop  offset="0.375" style="stop-color:#2563eb"/>
				<stop  offset="0.7622" style="stop-color:#DD2557"/>
				<stop  offset="1" style="stop-color:#DA1C5C"/>
			</linearGradient>
			<path class="st7" d="M139.1,107.6c0,0.5,0.5,1.5,1.5,1.5h40.5c0.5,0,1.5-0.5,1.5-1.5v-6.1L139.1,97V107.6L139.1,107.6z"/>
		</g>
		<linearGradient id="SVGID_9_" gradientUnits="userSpaceOnUse" x1="186.6471" y1="53.95" x2="11.112" y2="53.95">
			<stop  offset="0" style="stop-color:#2563eb"/>
			<stop  offset="0.375" style="stop-color:#2563eb"/>
			<stop  offset="0.7622" style="stop-color:#DD2557"/>
			<stop  offset="1" style="stop-color:#DA1C5C"/>
		</linearGradient>
		<path class="st8" d="M147.2,59c0,1-0.5,1.5-1.5,1.5h-5.1c-0.5,0-1.5-0.5-1.5-1.5V48.9c0-1,0.5-1.5,1.5-1.5h5.1
			c0.5,0,1.5,0.5,1.5,1.5V59z"/>
	</g>
	<g>
		<linearGradient id="SVGID_10_" gradientUnits="userSpaceOnUse" x1="186.6471" y1="92.4" x2="11.112" y2="92.4">
			<stop  offset="0" style="stop-color:#2563eb"/>
			<stop  offset="0.375" style="stop-color:#2563eb"/>
			<stop  offset="0.7622" style="stop-color:#DD2557"/>
			<stop  offset="1" style="stop-color:#DA1C5C"/>
		</linearGradient>
		<path class="st9" d="M31.8,84.3c-1.5-0.5-5.1-1.5-8.1-1.5c-2.5,0-4.6,0.5-4.6,2.5c0,2.5,3,3.5,6.1,4.6c4.1,1.5,8.6,3,8.6,8.6
			c0,6.6-4.1,10.1-13.2,10.1c-4.1,0-8.6-1-10.6-2l1.5-6.1c1.5,0.5,6.1,2,9.6,2c2.5,0,4.6-0.5,4.6-3c0-2-2.5-3-5.6-4.6
			c-4.6-2-9.6-4.1-9.6-9.1c0-6.6,5.1-9.6,12.7-9.6c4.6,0,7.6,1,9.6,2L31.8,84.3z"/>
		<linearGradient id="SVGID_11_" gradientUnits="userSpaceOnUse" x1="186.6471" y1="98.5" x2="11.112" y2="98.5">
			<stop  offset="0" style="stop-color:#2563eb"/>
			<stop  offset="0.375" style="stop-color:#2563eb"/>
			<stop  offset="0.7622" style="stop-color:#DD2557"/>
			<stop  offset="1" style="stop-color:#DA1C5C"/>
		</linearGradient>
		<path class="st10" d="M37.8,78.7c3.5-1,8.6-2.5,14.2-2.5c7.6,0,15.2,3,15.2,15.7c0,9.1-3.5,16.7-15.2,16.7c-1.5,0-4.1-0.5-5.6-0.5
			v12.7h-8.6C37.8,120.8,37.8,78.7,37.8,78.7z M45.9,101c1.5,0.5,3,0.5,4.1,0.5c5.6,0,7.6-4.1,7.6-10.1c0-5.6-2.5-9.1-7.1-9.1
			c-1.5,0-3,0-5.1,0.5C45.9,83.3,45.9,101,45.9,101z"/>
		<linearGradient id="SVGID_12_" gradientUnits="userSpaceOnUse" x1="186.6471" y1="87.35" x2="11.112" y2="87.35">
			<stop  offset="0" style="stop-color:#2563eb"/>
			<stop  offset="0.375" style="stop-color:#2563eb"/>
			<stop  offset="0.7622" style="stop-color:#DD2557"/>
			<stop  offset="1" style="stop-color:#DA1C5C"/>
		</linearGradient>
		<path class="st11" d="M87,107.6c-2.5,1-5.1,1.5-6.1,1.5c-9.6,0-9.6-5.6-9.6-10.6V65.6h8.6V99c0,2.5,0.5,3,2.5,3c1,0,2,0,4.1-0.5
			L87,107.6z"/>
		<linearGradient id="SVGID_13_" gradientUnits="userSpaceOnUse" x1="186.6471" y1="86.85" x2="11.112" y2="86.85">
			<stop  offset="0" style="stop-color:#2563eb"/>
			<stop  offset="0.375" style="stop-color:#2563eb"/>
			<stop  offset="0.7622" style="stop-color:#DD2557"/>
			<stop  offset="1" style="stop-color:#DA1C5C"/>
		</linearGradient>
		<path class="st12" d="M89.5,65.6h8.6v6.6h-8.6V65.6z M98.1,108.1h-8.6V76.7h8.6V108.1z"/>
		<linearGradient id="SVGID_14_" gradientUnits="userSpaceOnUse" x1="186.6471" y1="89.35" x2="11.112" y2="89.35">
			<stop  offset="0" style="stop-color:#2563eb"/>
			<stop  offset="0.375" style="stop-color:#2563eb"/>
			<stop  offset="0.7622" style="stop-color:#DD2557"/>
			<stop  offset="1" style="stop-color:#DA1C5C"/>
		</linearGradient>
		<path class="st13" d="M106.7,82.8h-5.6v-6.1h5.6v-7.1l8.6-0.5v7.6h9.1l-0.5,6.1h-8.6V99c0,2.5,0.5,3.5,2.5,3.5c1,0,2.5,0,4.1-0.5
			l1,6.1c-2.5,1-5.6,1.5-7.1,1.5c-9.6,0-9.6-5.6-9.6-10.6L106.7,82.8L106.7,82.8z"/>
	</g>
	<g>
		<linearGradient id="SVGID_15_" gradientUnits="userSpaceOnUse" x1="186.6471" y1="138.55" x2="11.112" y2="138.55">
			<stop  offset="0" style="stop-color:#2563eb"/>
			<stop  offset="0.375" style="stop-color:#2563eb"/>
			<stop  offset="0.7622" style="stop-color:#DD2557"/>
			<stop  offset="1" style="stop-color:#DA1C5C"/>
		</linearGradient>
		<path class="st14" d="M63.2,129.4c3-1,5.6-1.5,8.1-1.5c7.1,0,12.7,3.5,12.7,14.7s-4.6,17.7-15.7,17.7c-5.1,0-11.1-1-13.7-2v-41.5
			h8.6C63.2,117.2,63.2,129.4,63.2,129.4z M63.2,153.7c1,0,2.5,0.5,4.1,0.5c6.6,0,8.6-4.1,8.6-10.1c0-7.1-3-9.1-6.6-9.1
			c-1.5,0-3.5,0-5.6,1L63.2,153.7L63.2,153.7z"/>
		<linearGradient id="SVGID_16_" gradientUnits="userSpaceOnUse" x1="186.6471" y1="138.45" x2="11.112" y2="138.45">
			<stop  offset="0" style="stop-color:#2563eb"/>
			<stop  offset="0.375" style="stop-color:#2563eb"/>
			<stop  offset="0.7622" style="stop-color:#DD2557"/>
			<stop  offset="1" style="stop-color:#DA1C5C"/>
		</linearGradient>
		<path class="st15" d="M88.5,117.2h8.6v6.6h-8.6V117.2z M97.1,159.7h-8.6v-31.4h8.6V159.7L97.1,159.7z"/>
		<linearGradient id="SVGID_17_" gradientUnits="userSpaceOnUse" x1="186.6471" y1="138.95" x2="11.112" y2="138.95">
			<stop  offset="0" style="stop-color:#2563eb"/>
			<stop  offset="0.375" style="stop-color:#2563eb"/>
			<stop  offset="0.7622" style="stop-color:#DD2557"/>
			<stop  offset="1" style="stop-color:#DA1C5C"/>
		</linearGradient>
		<path class="st16" d="M117.8,159.2c-2.5,1.5-5.1,1.5-6.1,1.5c-9.6,0-9.6-5.6-9.6-10.6v-32.9h8.6v33.4c0,2.5,0.5,3,2.5,3
			c1,0,2,0,4.1-0.5L117.8,159.2z"/>
		<linearGradient id="SVGID_18_" gradientUnits="userSpaceOnUse" x1="186.6471" y1="138.95" x2="11.112" y2="138.95">
			<stop  offset="0" style="stop-color:#2563eb"/>
			<stop  offset="0.375" style="stop-color:#2563eb"/>
			<stop  offset="0.7622" style="stop-color:#DD2557"/>
			<stop  offset="1" style="stop-color:#DA1C5C"/>
		</linearGradient>
		<path class="st17" d="M136.1,159.2c-2.5,1-5.1,1.5-6.1,1.5c-9.6,0-9.6-5.6-9.6-10.6v-32.9h8.6v33.4c0,2.5,0.5,3,2.5,3
			c1,0,2,0,4.1-0.5L136.1,159.2z"/>
		<linearGradient id="SVGID_19_" gradientUnits="userSpaceOnUse" x1="186.6471" y1="144.6" x2="11.112" y2="144.6">
			<stop  offset="0" style="stop-color:#2563eb"/>
			<stop  offset="0.375" style="stop-color:#2563eb"/>
			<stop  offset="0.7622" style="stop-color:#DD2557"/>
			<stop  offset="1" style="stop-color:#DA1C5C"/>
		</linearGradient>
		<path class="st18" d="M159.9,136.5c-1.5-0.5-5.1-1.5-8.1-1.5c-2.5,0-4.6,0.5-4.6,2.5s3,3.5,6.1,4.6c4.1,1.5,8.6,3,8.6,8.6
			c0,6.6-4.1,10.1-13.2,10.1c-4.1,0-8.6-1-10.6-2l1.5-6.1c1.5,0.5,6.1,2,9.6,2c2.5,0,4.6-0.5,4.6-3c0-2-2.5-3-5.6-4.6
			c-4.6-2-9.6-4.1-9.6-9.1c0-6.6,5.1-9.6,12.7-9.6c4.6,0,7.6,1,9.6,2L159.9,136.5z"/>
	</g>
</g>
</svg>
